<?xml version="1.0" standalone="no"?>
<!DOCTYPE svg PUBLIC "-//W3C//DTD SVG 20010904//EN"
 "http://www.w3.org/TR/2001/REC-SVG-20010904/DTD/svg10.dtd">
<svg version="1.0" xmlns="http://www.w3.org/2000/svg"
 width="100.000000pt" height="100.000000pt" viewBox="0 0 100.000000 100.000000"
 preserveAspectRatio="xMidYMid meet">

<g transform="translate(0.000000,100.000000) scale(0.100000,-0.100000)"
fill="#000000" stroke="none">
<path d="M104 962 c-61 -9 -88 -101 -43 -148 12 -13 28 -24 36 -24 10 0 13
-23 13 -98 0 -96 -1 -99 -26 -110 -14 -7 -32 -28 -40 -47 -12 -31 -12 -39 0
-70 8 -19 26 -40 40 -47 25 -11 26 -14 26 -110 0 -75 -3 -98 -13 -98 -27 0
-59 -47 -59 -85 0 -77 92 -117 148 -64 13 12 24 28 24 36 0 10 23 13 98 13 96
0 99 -1 110 -26 7 -14 28 -32 47 -40 31 -12 39 -12 70 0 19 8 40 26 47 40 11
25 14 26 110 26 75 0 98 -3 98 -13 0 -27 47 -59 85 -59 77 0 117 92 64 148
-12 13 -28 24 -36 24 -10 0 -13 23 -13 98 0 96 1 99 26 110 14 7 32 28 40 47
12 31 12 39 0 70 -8 19 -26 40 -40 47 -25 11 -26 14 -26 110 0 75 3 98 13 98
8 0 24 11 36 24 53 56 13 148 -64 148 -38 0 -85 -32 -85 -59 0 -10 -23 -13
-98 -13 -96 0 -99 1 -110 26 -7 14 -28 32 -47 40 -31 12 -39 12 -70 0 -19 -8
-40 -26 -47 -40 -11 -25 -14 -26 -110 -26 -75 0 -98 3 -98 13 0 18 -40 53 -65
58 -11 3 -30 3 -41 1z m66 -42 c40 -40 11 -110 -45 -110 -32 0 -65 33 -65 65
0 32 33 65 65 65 14 0 34 -9 45 -20z m375 0 c37 -41 9 -110 -45 -110 -15 0
-35 9 -45 20 -37 41 -9 110 45 110 15 0 35 -9 45 -20z m375 0 c11 -11 20 -31
20 -45 0 -14 -9 -34 -20 -45 -11 -11 -31 -20 -45 -20 -14 0 -34 9 -45 20 -11
11 -20 31 -20 45 0 14 9 34 20 45 11 11 31 20 45 20 14 0 34 -9 45 -20z m-502
-85 c6 -13 25 -31 42 -40 26 -13 30 -21 30 -55 0 -29 -4 -40 -15 -40 -9 0 -15
-9 -15 -25 0 -33 -25 -42 -50 -20 -15 13 -23 15 -33 7 -10 -9 -31 7 -95 71
-66 67 -80 86 -76 105 6 21 11 22 104 22 93 0 97 -1 108 -25z m376 3 c4 -19
-10 -38 -76 -105 -64 -64 -85 -80 -95 -71 -10 8 -18 6 -33 -7 -25 -22 -50 -13
-50 20 0 16 -6 25 -15 25 -11 0 -15 11 -15 40 0 34 4 42 30 55 17 9 36 27 42
40 11 24 15 25 108 25 93 0 98 -1 104 -22z m-526 -121 c64 -64 80 -85 70 -95
-9 -9 -7 -16 6 -31 23 -26 14 -51 -19 -51 -16 0 -25 -6 -25 -15 0 -11 -11 -15
-40 -15 -34 0 -42 4 -55 30 -9 17 -27 36 -40 42 -24 11 -25 15 -25 109 0 100
-1 99 40 108 3 0 43 -36 88 -82z m583 73 c5 0 9 -44 9 -98 0 -95 -1 -99 -25
-110 -13 -6 -31 -25 -40 -42 -13 -26 -21 -30 -55 -30 -29 0 -40 4 -40 15 0 9
-9 15 -25 15 -33 0 -42 25 -19 51 13 15 15 22 6 31 -10 10 6 31 70 95 48 48
88 81 96 78 8 -3 18 -5 23 -5z m-333 -139 c5 -29 49 -47 76 -31 25 16 42 -1
26 -26 -17 -27 2 -72 32 -76 30 -4 30 -32 0 -36 -32 -5 -50 -46 -33 -74 17
-27 0 -44 -27 -27 -28 17 -69 -1 -74 -33 -2 -13 -10 -23 -18 -23 -8 0 -16 10
-18 23 -5 32 -46 50 -74 33 -27 -17 -44 -1 -28 25 17 27 -2 72 -32 76 -13 2
-23 10 -23 18 0 8 10 16 23 18 30 4 49 49 32 76 -16 25 1 42 26 26 26 -16 74
3 74 28 0 39 33 41 38 3z m-345 -109 c39 -34 7 -104 -48 -104 -55 0 -87 70
-47 104 33 29 60 29 95 0z m750 0 c39 -34 7 -104 -48 -104 -55 0 -87 70 -47
104 33 29 60 29 95 0z m-623 -67 c0 -9 9 -15 25 -15 33 0 42 -25 20 -50 -13
-15 -15 -23 -7 -33 9 -10 -7 -31 -71 -95 -67 -66 -86 -80 -104 -76 -22 6 -23
11 -23 104 0 93 1 97 25 108 13 6 31 25 40 42 13 26 21 30 55 30 29 0 40 -4
40 -15z m495 -15 c9 -17 27 -36 40 -42 24 -11 25 -15 25 -108 0 -93 -1 -98
-22 -104 -19 -4 -38 10 -105 76 -64 64 -80 85 -71 95 8 10 6 18 -7 33 -22 25
-13 50 20 50 16 0 25 6 25 15 0 11 11 15 40 15 34 0 42 -4 55 -30z m-337 -133
c2 -15 9 -27 18 -27 10 0 14 -12 14 -40 0 -34 -4 -42 -30 -55 -17 -9 -36 -27
-42 -40 -11 -24 -15 -25 -108 -25 -93 0 -98 1 -104 23 -4 18 10 37 76 104 65
65 85 80 95 71 11 -9 18 -7 31 6 24 23 46 16 50 -17z m134 17 c13 -13 21 -14
31 -6 10 9 31 -7 95 -71 66 -67 80 -86 76 -104 -6 -22 -11 -23 -104 -23 -93 0
-97 1 -108 25 -6 13 -25 31 -42 40 -26 13 -30 21 -30 55 0 29 4 40 15 40 9 0
15 9 15 23 0 40 21 48 52 21z m-422 -174 c40 -40 11 -110 -45 -110 -14 0 -34
9 -45 20 -40 40 -11 110 45 110 14 0 34 -9 45 -20z m375 0 c37 -41 9 -110 -45
-110 -15 0 -35 9 -45 20 -37 41 -9 110 45 110 15 0 35 -9 45 -20z m375 0 c11
-11 20 -31 20 -45 0 -56 -70 -85 -110 -45 -40 40 -11 110 45 110 14 0 34 -9
45 -20z"/>
<path d="M447 552 c-23 -25 -22 -85 1 -105 25 -23 85 -22 105 1 23 25 22 85
-1 105 -25 23 -85 22 -105 -1z m87 -18 c9 -8 16 -24 16 -34 0 -43 -54 -65 -84
-34 -9 8 -16 24 -16 34 0 10 7 26 16 34 8 9 24 16 34 16 10 0 26 -7 34 -16z"/>
</g>
</svg>
